<svg xmlns="http://www.w3.org/2000/svg" viewBox="0 0 640 400" role="img" aria-labelledby="title desc">
  <title id="title">Miniature du projet ComploScore</title>
  <desc id="desc">Illustration du projet ComploScore avec le titre en haut, une carte stylisee et un score D.</desc>
  <rect width="640" height="400" fill="#cfd5e6"/>
  <rect width="640" height="120" fill="#f3f1f2"/>
  <text x="40" y="72" fill="#101116" font-family="Arial, Helvetica, sans-serif" font-size="38">Complo</text>
  <text x="226" y="72" fill="#e34b5f" font-family="Arial, Helvetica, sans-serif" font-size="38" font-weight="700">Score</text>
  <rect x="227" y="80" width="138" height="6" rx="3" fill="#f0a7b0"/>
  <path d="M58 215l55-55 42 4 20-18 98 0 19-20-10-27 31-20 20 17-6 38 15 18-23 24-124 0-30 28-39-5-46 44z" fill="#6fa266"/>
  <path d="M240 364l-60-24-33-35-92-17-32-36 3-24 80-30 22-35 114-26 18-32 20 16-7 29 34 30-11 42 19 17 72-4 26 36 50 18 20 40-35 42-47-6-25 13-70-4-56 28z" fill="#ae7a58"/>
  <path d="M482 120h158v280H484l-21-24 8-140z" fill="#bb9560"/>
  <path d="M520 84h84l19 18v60l-19 18h-84l-18-18v-60z" fill="#d89b1d" stroke="#d8b16c" stroke-width="3"/>
  <text x="562" y="145" fill="#23190b" font-family="Arial, Helvetica, sans-serif" font-size="46" font-weight="700">C</text>
  <g filter="url(#shadow)">
    <rect x="292" y="270" width="90" height="90" rx="18" fill="#d97706"/>
    <rect x="297" y="275" width="80" height="80" rx="15" fill="#dc7f0f" stroke="#efb365" stroke-width="2"/>
    <text x="337" y="330" text-anchor="middle" fill="#fff5e8" font-family="Arial, Helvetica, sans-serif" font-size="42" font-weight="700">D</text>
  </g>
  <defs>
    <filter id="shadow" x="-20%" y="-20%" width="140%" height="140%">
      <feDropShadow dx="0" dy="7" stdDeviation="10" flood-color="#7a4d20" flood-opacity="0.4"/>
    </filter>
  </defs>
</svg>
